<mxfile host="app.diagrams.net" agent="Mozilla/5.0 (X11; Linux x86_64; rv:132.0) Gecko/20100101 Firefox/132.0" version="24.9.1">
  <diagram name="Page-1" id="gp0-262EAn9LANQahXFk">
    <mxGraphModel dx="2062" dy="1220" grid="1" gridSize="5" guides="1" tooltips="1" connect="1" arrows="1" fold="1" page="0" pageScale="1" pageWidth="850" pageHeight="1100" math="0" shadow="0">
      <root>
        <mxCell id="0" />
        <mxCell id="1" parent="0" />
        <mxCell id="sMpZfSwaJNz6gbqCKryr-21" value="" style="group" vertex="1" connectable="0" parent="1">
          <mxGeometry x="115" y="55" width="310" height="405" as="geometry" />
        </mxCell>
        <mxCell id="sMpZfSwaJNz6gbqCKryr-1" value="&lt;div align=&quot;center&quot;&gt;&amp;nbsp;&amp;lt;&amp;lt;device&amp;gt;&amp;gt; &lt;br&gt;&lt;/div&gt;&lt;div align=&quot;center&quot;&gt;&lt;b&gt;&amp;nbsp; Client_Student&lt;/b&gt;&lt;/div&gt;" style="verticalAlign=top;align=center;shape=cube;size=10;direction=south;fontStyle=0;html=1;boundedLbl=1;spacingLeft=5;whiteSpace=wrap;" vertex="1" parent="sMpZfSwaJNz6gbqCKryr-21">
          <mxGeometry width="310" height="290" as="geometry" />
        </mxCell>
        <mxCell id="sMpZfSwaJNz6gbqCKryr-48" value="&lt;div align=&quot;center&quot;&gt;&amp;lt;&amp;lt;device&amp;gt;&amp;gt;&lt;/div&gt;&lt;div align=&quot;center&quot;&gt;&lt;b&gt;Web Browser&lt;/b&gt;&lt;br&gt;&lt;/div&gt;" style="verticalAlign=top;align=center;spacingTop=8;spacingLeft=2;spacingRight=12;shape=cube;size=10;direction=south;fontStyle=4;html=1;whiteSpace=wrap;" vertex="1" parent="sMpZfSwaJNz6gbqCKryr-21">
          <mxGeometry x="10" y="45" width="280" height="230" as="geometry" />
        </mxCell>
        <mxCell id="sMpZfSwaJNz6gbqCKryr-60" value="" style="group" vertex="1" connectable="0" parent="sMpZfSwaJNz6gbqCKryr-21">
          <mxGeometry x="65" y="100" width="165" height="50" as="geometry" />
        </mxCell>
        <mxCell id="sMpZfSwaJNz6gbqCKryr-14" value="&amp;lt;&amp;lt;artifact&amp;gt;&amp;gt;&lt;br&gt;&lt;div&gt;&lt;b&gt;React Components&lt;/b&gt;&lt;br&gt;&lt;/div&gt;" style="html=1;align=center;verticalAlign=middle;dashed=0;whiteSpace=wrap;" vertex="1" parent="sMpZfSwaJNz6gbqCKryr-60">
          <mxGeometry width="165" height="50" as="geometry" />
        </mxCell>
        <mxCell id="sMpZfSwaJNz6gbqCKryr-51" value="" style="shape=note;whiteSpace=wrap;html=1;backgroundOutline=1;darkOpacity=0.05;size=6;" vertex="1" parent="sMpZfSwaJNz6gbqCKryr-60">
          <mxGeometry x="140" y="5" width="20" height="20" as="geometry" />
        </mxCell>
        <mxCell id="sMpZfSwaJNz6gbqCKryr-76" value="" style="group" vertex="1" connectable="0" parent="sMpZfSwaJNz6gbqCKryr-21">
          <mxGeometry x="65" y="190" width="165" height="50" as="geometry" />
        </mxCell>
        <mxCell id="sMpZfSwaJNz6gbqCKryr-77" value="&amp;lt;&amp;lt;artifact&amp;gt;&amp;gt;&lt;br&gt;&lt;div&gt;&lt;b&gt;API Calls to backend&lt;/b&gt;&lt;br&gt;&lt;/div&gt;" style="html=1;align=center;verticalAlign=middle;dashed=0;whiteSpace=wrap;" vertex="1" parent="sMpZfSwaJNz6gbqCKryr-76">
          <mxGeometry width="165" height="50" as="geometry" />
        </mxCell>
        <mxCell id="sMpZfSwaJNz6gbqCKryr-78" value="" style="shape=note;whiteSpace=wrap;html=1;backgroundOutline=1;darkOpacity=0.05;size=6;" vertex="1" parent="sMpZfSwaJNz6gbqCKryr-76">
          <mxGeometry x="140" y="5" width="20" height="20" as="geometry" />
        </mxCell>
        <mxCell id="sMpZfSwaJNz6gbqCKryr-79" style="edgeStyle=orthogonalEdgeStyle;rounded=0;orthogonalLoop=1;jettySize=auto;html=1;dashed=1;" edge="1" parent="sMpZfSwaJNz6gbqCKryr-21" source="sMpZfSwaJNz6gbqCKryr-14" target="sMpZfSwaJNz6gbqCKryr-77">
          <mxGeometry relative="1" as="geometry" />
        </mxCell>
        <mxCell id="sMpZfSwaJNz6gbqCKryr-24" value="&amp;lt;&amp;lt;device&amp;gt;&amp;gt;&lt;br&gt;&lt;div&gt;&lt;b&gt;&lt;font style=&quot;font-size: 14px;&quot;&gt;Express_Server&lt;/font&gt;&lt;/b&gt;&lt;/div&gt;" style="verticalAlign=top;align=center;shape=cube;size=10;direction=south;fontStyle=0;html=1;boundedLbl=1;spacingLeft=5;whiteSpace=wrap;" vertex="1" parent="1">
          <mxGeometry x="590" y="270" width="420" height="400" as="geometry" />
        </mxCell>
        <mxCell id="sMpZfSwaJNz6gbqCKryr-104" value="" style="group" vertex="1" connectable="0" parent="sMpZfSwaJNz6gbqCKryr-24">
          <mxGeometry x="230" y="135" width="165" height="50" as="geometry" />
        </mxCell>
        <mxCell id="sMpZfSwaJNz6gbqCKryr-105" value="&amp;lt;&amp;lt;artifact&amp;gt;&amp;gt;&lt;br&gt;&lt;div&gt;&lt;b&gt;Middleware&lt;/b&gt;&lt;br&gt;&lt;/div&gt;" style="html=1;align=center;verticalAlign=middle;dashed=0;whiteSpace=wrap;" vertex="1" parent="sMpZfSwaJNz6gbqCKryr-104">
          <mxGeometry width="165" height="50" as="geometry" />
        </mxCell>
        <mxCell id="sMpZfSwaJNz6gbqCKryr-106" value="" style="shape=note;whiteSpace=wrap;html=1;backgroundOutline=1;darkOpacity=0.05;size=6;" vertex="1" parent="sMpZfSwaJNz6gbqCKryr-104">
          <mxGeometry x="140" y="5" width="20" height="20" as="geometry" />
        </mxCell>
        <mxCell id="sMpZfSwaJNz6gbqCKryr-107" value="" style="group" vertex="1" connectable="0" parent="sMpZfSwaJNz6gbqCKryr-24">
          <mxGeometry x="35" y="215" width="165" height="50" as="geometry" />
        </mxCell>
        <mxCell id="sMpZfSwaJNz6gbqCKryr-108" value="&amp;lt;&amp;lt;artifact&amp;gt;&amp;gt;&lt;br&gt;&lt;div&gt;&lt;b&gt;API Endpoints&lt;/b&gt;&lt;br&gt;&lt;/div&gt;" style="html=1;align=center;verticalAlign=middle;dashed=0;whiteSpace=wrap;" vertex="1" parent="sMpZfSwaJNz6gbqCKryr-107">
          <mxGeometry width="165" height="50" as="geometry" />
        </mxCell>
        <mxCell id="sMpZfSwaJNz6gbqCKryr-109" value="" style="shape=note;whiteSpace=wrap;html=1;backgroundOutline=1;darkOpacity=0.05;size=6;" vertex="1" parent="sMpZfSwaJNz6gbqCKryr-107">
          <mxGeometry x="140" y="5" width="20" height="20" as="geometry" />
        </mxCell>
        <mxCell id="sMpZfSwaJNz6gbqCKryr-110" value="" style="group" vertex="1" connectable="0" parent="sMpZfSwaJNz6gbqCKryr-24">
          <mxGeometry x="30" y="75" width="165" height="50" as="geometry" />
        </mxCell>
        <mxCell id="sMpZfSwaJNz6gbqCKryr-111" value="&amp;lt;&amp;lt;artifact&amp;gt;&amp;gt;&lt;br&gt;&lt;div&gt;Main Process&lt;br&gt;&lt;/div&gt;" style="html=1;align=center;verticalAlign=middle;dashed=0;whiteSpace=wrap;" vertex="1" parent="sMpZfSwaJNz6gbqCKryr-110">
          <mxGeometry width="165" height="50" as="geometry" />
        </mxCell>
        <mxCell id="sMpZfSwaJNz6gbqCKryr-112" value="" style="shape=note;whiteSpace=wrap;html=1;backgroundOutline=1;darkOpacity=0.05;size=6;" vertex="1" parent="sMpZfSwaJNz6gbqCKryr-110">
          <mxGeometry x="140" y="5" width="20" height="20" as="geometry" />
        </mxCell>
        <mxCell id="sMpZfSwaJNz6gbqCKryr-113" value="" style="group" vertex="1" connectable="0" parent="sMpZfSwaJNz6gbqCKryr-24">
          <mxGeometry x="120" y="320" width="165" height="50" as="geometry" />
        </mxCell>
        <mxCell id="sMpZfSwaJNz6gbqCKryr-114" value="&amp;lt;&amp;lt;artifact&amp;gt;&amp;gt;&lt;br&gt;&lt;div&gt;&lt;b&gt;Environment Variables&lt;/b&gt;&lt;br&gt;&lt;/div&gt;" style="html=1;align=center;verticalAlign=middle;dashed=0;whiteSpace=wrap;" vertex="1" parent="sMpZfSwaJNz6gbqCKryr-113">
          <mxGeometry width="165" height="50" as="geometry" />
        </mxCell>
        <mxCell id="sMpZfSwaJNz6gbqCKryr-115" value="" style="shape=note;whiteSpace=wrap;html=1;backgroundOutline=1;darkOpacity=0.05;size=6;" vertex="1" parent="sMpZfSwaJNz6gbqCKryr-113">
          <mxGeometry x="140" y="5" width="20" height="20" as="geometry" />
        </mxCell>
        <mxCell id="sMpZfSwaJNz6gbqCKryr-122" style="edgeStyle=orthogonalEdgeStyle;rounded=0;orthogonalLoop=1;jettySize=auto;html=1;entryX=1;entryY=0.5;entryDx=0;entryDy=0;exitX=0.5;exitY=1;exitDx=0;exitDy=0;dashed=1;" edge="1" parent="sMpZfSwaJNz6gbqCKryr-24" source="sMpZfSwaJNz6gbqCKryr-105" target="sMpZfSwaJNz6gbqCKryr-114">
          <mxGeometry relative="1" as="geometry" />
        </mxCell>
        <mxCell id="sMpZfSwaJNz6gbqCKryr-117" style="edgeStyle=orthogonalEdgeStyle;rounded=0;orthogonalLoop=1;jettySize=auto;html=1;exitX=1;exitY=0.5;exitDx=0;exitDy=0;entryX=0.5;entryY=0;entryDx=0;entryDy=0;dashed=1;" edge="1" parent="sMpZfSwaJNz6gbqCKryr-24" source="sMpZfSwaJNz6gbqCKryr-111" target="sMpZfSwaJNz6gbqCKryr-105">
          <mxGeometry relative="1" as="geometry" />
        </mxCell>
        <mxCell id="sMpZfSwaJNz6gbqCKryr-118" style="edgeStyle=orthogonalEdgeStyle;rounded=0;orthogonalLoop=1;jettySize=auto;html=1;dashed=1;exitX=0;exitY=0.5;exitDx=0;exitDy=0;" edge="1" parent="sMpZfSwaJNz6gbqCKryr-24" source="sMpZfSwaJNz6gbqCKryr-105" target="sMpZfSwaJNz6gbqCKryr-108">
          <mxGeometry relative="1" as="geometry">
            <Array as="points">
              <mxPoint x="118" y="160" />
            </Array>
          </mxGeometry>
        </mxCell>
        <mxCell id="sMpZfSwaJNz6gbqCKryr-26" value="&amp;lt;&amp;lt;device&amp;gt;&amp;gt;&lt;br&gt;&lt;div&gt;Flask_Server&lt;/div&gt;" style="verticalAlign=top;align=center;shape=cube;size=10;direction=south;fontStyle=0;html=1;boundedLbl=1;spacingLeft=5;whiteSpace=wrap;" vertex="1" parent="1">
          <mxGeometry x="795" y="735" width="310" height="270" as="geometry" />
        </mxCell>
        <mxCell id="sMpZfSwaJNz6gbqCKryr-30" value="&amp;lt;&amp;lt;device&amp;gt;&amp;gt;&lt;br&gt;&lt;div&gt;PostgreSQL Database&lt;/div&gt;" style="verticalAlign=top;align=center;shape=cube;size=10;direction=south;fontStyle=0;html=1;boundedLbl=1;spacingLeft=5;whiteSpace=wrap;" vertex="1" parent="1">
          <mxGeometry x="1170" y="355" width="300" height="265" as="geometry" />
        </mxCell>
        <mxCell id="sMpZfSwaJNz6gbqCKryr-34" value="" style="endArrow=none;html=1;rounded=0;entryX=0;entryY=0;entryDx=140;entryDy=0;entryPerimeter=0;exitX=-0.001;exitY=0.7;exitDx=0;exitDy=0;exitPerimeter=0;" edge="1" parent="1" source="sMpZfSwaJNz6gbqCKryr-24" target="sMpZfSwaJNz6gbqCKryr-1">
          <mxGeometry width="50" height="50" relative="1" as="geometry">
            <mxPoint x="970" y="120" as="sourcePoint" />
            <mxPoint x="1020" y="70" as="targetPoint" />
          </mxGeometry>
        </mxCell>
        <mxCell id="sMpZfSwaJNz6gbqCKryr-35" value="&lt;font style=&quot;font-size: 21px;&quot;&gt;TCP/IP&lt;/font&gt;" style="edgeLabel;html=1;align=center;verticalAlign=middle;resizable=0;points=[];" vertex="1" connectable="0" parent="sMpZfSwaJNz6gbqCKryr-34">
          <mxGeometry x="-0.4317" y="4" relative="1" as="geometry">
            <mxPoint x="-94" y="-49" as="offset" />
          </mxGeometry>
        </mxCell>
        <mxCell id="sMpZfSwaJNz6gbqCKryr-36" value="" style="endArrow=none;html=1;rounded=0;entryX=0.559;entryY=0.005;entryDx=0;entryDy=0;entryPerimeter=0;exitX=1;exitY=1;exitDx=0;exitDy=0;exitPerimeter=0;" edge="1" parent="1" source="sMpZfSwaJNz6gbqCKryr-24" target="sMpZfSwaJNz6gbqCKryr-71">
          <mxGeometry width="50" height="50" relative="1" as="geometry">
            <mxPoint x="730" y="1000" as="sourcePoint" />
            <mxPoint x="430" y="880" as="targetPoint" />
          </mxGeometry>
        </mxCell>
        <mxCell id="sMpZfSwaJNz6gbqCKryr-37" value="&lt;font style=&quot;font-size: 21px;&quot;&gt;TCP/IP&lt;/font&gt;" style="edgeLabel;html=1;align=center;verticalAlign=middle;resizable=0;points=[];" vertex="1" connectable="0" parent="sMpZfSwaJNz6gbqCKryr-36">
          <mxGeometry x="-0.4317" y="4" relative="1" as="geometry">
            <mxPoint x="-13" y="27" as="offset" />
          </mxGeometry>
        </mxCell>
        <mxCell id="sMpZfSwaJNz6gbqCKryr-38" value="" style="endArrow=none;html=1;rounded=0;exitX=0;exitY=0;exitDx=205;exitDy=420;exitPerimeter=0;" edge="1" parent="1" source="sMpZfSwaJNz6gbqCKryr-24">
          <mxGeometry width="50" height="50" relative="1" as="geometry">
            <mxPoint x="710" y="350" as="sourcePoint" />
            <mxPoint x="426" y="475" as="targetPoint" />
          </mxGeometry>
        </mxCell>
        <mxCell id="sMpZfSwaJNz6gbqCKryr-39" value="&lt;font style=&quot;font-size: 21px;&quot;&gt;TCP/IP&lt;/font&gt;" style="edgeLabel;html=1;align=center;verticalAlign=middle;resizable=0;points=[];" vertex="1" connectable="0" parent="sMpZfSwaJNz6gbqCKryr-38">
          <mxGeometry x="-0.4317" y="4" relative="1" as="geometry">
            <mxPoint x="-45" y="-23" as="offset" />
          </mxGeometry>
        </mxCell>
        <mxCell id="sMpZfSwaJNz6gbqCKryr-40" value="" style="endArrow=none;html=1;rounded=0;entryX=0.676;entryY=0;entryDx=0;entryDy=0;entryPerimeter=0;exitX=0.69;exitY=1.004;exitDx=0;exitDy=0;exitPerimeter=0;" edge="1" parent="1" source="sMpZfSwaJNz6gbqCKryr-30" target="sMpZfSwaJNz6gbqCKryr-24">
          <mxGeometry width="50" height="50" relative="1" as="geometry">
            <mxPoint x="1180" y="360" as="sourcePoint" />
            <mxPoint x="950" y="80" as="targetPoint" />
          </mxGeometry>
        </mxCell>
        <mxCell id="sMpZfSwaJNz6gbqCKryr-41" value="&lt;font style=&quot;font-size: 21px;&quot;&gt;TCP/IP&lt;/font&gt;" style="edgeLabel;html=1;align=center;verticalAlign=middle;resizable=0;points=[];" vertex="1" connectable="0" parent="sMpZfSwaJNz6gbqCKryr-40">
          <mxGeometry x="-0.4317" y="4" relative="1" as="geometry">
            <mxPoint x="-30" y="-1" as="offset" />
          </mxGeometry>
        </mxCell>
        <mxCell id="sMpZfSwaJNz6gbqCKryr-42" value="" style="endArrow=none;html=1;rounded=0;entryX=0.556;entryY=0.003;entryDx=0;entryDy=0;entryPerimeter=0;" edge="1" parent="1" target="sMpZfSwaJNz6gbqCKryr-71">
          <mxGeometry width="50" height="50" relative="1" as="geometry">
            <mxPoint x="793" y="880" as="sourcePoint" />
            <mxPoint x="430" y="880" as="targetPoint" />
          </mxGeometry>
        </mxCell>
        <mxCell id="sMpZfSwaJNz6gbqCKryr-43" value="&lt;font style=&quot;font-size: 21px;&quot;&gt;TCP/IP&lt;/font&gt;" style="edgeLabel;html=1;align=center;verticalAlign=middle;resizable=0;points=[];" vertex="1" connectable="0" parent="sMpZfSwaJNz6gbqCKryr-42">
          <mxGeometry x="-0.4317" y="4" relative="1" as="geometry">
            <mxPoint x="-142" y="-23" as="offset" />
          </mxGeometry>
        </mxCell>
        <mxCell id="sMpZfSwaJNz6gbqCKryr-44" value="" style="endArrow=none;html=1;rounded=0;entryX=0;entryY=0;entryDx=0;entryDy=140;entryPerimeter=0;exitX=1;exitY=1;exitDx=0;exitDy=0;exitPerimeter=0;" edge="1" parent="1" source="sMpZfSwaJNz6gbqCKryr-30" target="sMpZfSwaJNz6gbqCKryr-26">
          <mxGeometry width="50" height="50" relative="1" as="geometry">
            <mxPoint x="740" y="380" as="sourcePoint" />
            <mxPoint x="480" y="270" as="targetPoint" />
          </mxGeometry>
        </mxCell>
        <mxCell id="sMpZfSwaJNz6gbqCKryr-45" value="&lt;font style=&quot;font-size: 21px;&quot;&gt;TCP/IP&lt;/font&gt;" style="edgeLabel;html=1;align=center;verticalAlign=middle;resizable=0;points=[];" vertex="1" connectable="0" parent="sMpZfSwaJNz6gbqCKryr-44">
          <mxGeometry x="-0.4317" y="4" relative="1" as="geometry">
            <mxPoint x="-34" y="19" as="offset" />
          </mxGeometry>
        </mxCell>
        <mxCell id="sMpZfSwaJNz6gbqCKryr-61" value="&lt;div align=&quot;center&quot;&gt;&amp;nbsp;&amp;lt;&amp;lt;device&amp;gt;&amp;gt; &lt;br&gt;&lt;/div&gt;&lt;div align=&quot;center&quot;&gt;&lt;b&gt;&amp;nbsp; Client_MessStaff&lt;/b&gt;&lt;/div&gt;" style="verticalAlign=top;align=center;shape=cube;size=10;direction=south;fontStyle=0;html=1;boundedLbl=1;spacingLeft=5;whiteSpace=wrap;" vertex="1" parent="1">
          <mxGeometry x="115" y="380" width="310" height="290" as="geometry" />
        </mxCell>
        <mxCell id="sMpZfSwaJNz6gbqCKryr-62" value="&lt;div align=&quot;center&quot;&gt;&amp;lt;&amp;lt;device&amp;gt;&amp;gt;&lt;/div&gt;&lt;div align=&quot;center&quot;&gt;&lt;b&gt;Web Browser&lt;/b&gt;&lt;br&gt;&lt;/div&gt;" style="verticalAlign=top;align=center;spacingTop=8;spacingLeft=2;spacingRight=12;shape=cube;size=10;direction=south;fontStyle=4;html=1;whiteSpace=wrap;" vertex="1" parent="1">
          <mxGeometry x="125" y="425" width="280" height="230" as="geometry" />
        </mxCell>
        <mxCell id="sMpZfSwaJNz6gbqCKryr-63" value="" style="group" vertex="1" connectable="0" parent="1">
          <mxGeometry x="180" y="480" width="165" height="50" as="geometry" />
        </mxCell>
        <mxCell id="sMpZfSwaJNz6gbqCKryr-65" value="" style="shape=note;whiteSpace=wrap;html=1;backgroundOutline=1;darkOpacity=0.05;size=6;" vertex="1" parent="sMpZfSwaJNz6gbqCKryr-63">
          <mxGeometry x="142.5" y="5" width="20" height="20" as="geometry" />
        </mxCell>
        <mxCell id="sMpZfSwaJNz6gbqCKryr-71" value="&lt;div align=&quot;center&quot;&gt;&amp;nbsp;&amp;lt;&amp;lt;device&amp;gt;&amp;gt; &lt;br&gt;&lt;/div&gt;&lt;div align=&quot;center&quot;&gt;&lt;b&gt;&amp;nbsp; Clinet_ADMIN&lt;/b&gt;&lt;br&gt;&lt;/div&gt;" style="verticalAlign=top;align=center;shape=cube;size=10;direction=south;fontStyle=0;html=1;boundedLbl=1;spacingLeft=5;whiteSpace=wrap;" vertex="1" parent="1">
          <mxGeometry x="105" y="720" width="310" height="290" as="geometry" />
        </mxCell>
        <mxCell id="sMpZfSwaJNz6gbqCKryr-72" value="&lt;div align=&quot;center&quot;&gt;&amp;lt;&amp;lt;device&amp;gt;&amp;gt;&lt;/div&gt;&lt;div align=&quot;center&quot;&gt;&lt;b&gt;Web Browser&lt;/b&gt;&lt;br&gt;&lt;/div&gt;" style="verticalAlign=top;align=center;spacingTop=8;spacingLeft=2;spacingRight=12;shape=cube;size=10;direction=south;fontStyle=4;html=1;whiteSpace=wrap;" vertex="1" parent="1">
          <mxGeometry x="115" y="765" width="280" height="230" as="geometry" />
        </mxCell>
        <mxCell id="sMpZfSwaJNz6gbqCKryr-90" value="" style="group" vertex="1" connectable="0" parent="1">
          <mxGeometry x="180" y="475" width="165" height="50" as="geometry" />
        </mxCell>
        <mxCell id="sMpZfSwaJNz6gbqCKryr-91" value="&amp;lt;&amp;lt;artifact&amp;gt;&amp;gt;&lt;br&gt;&lt;div&gt;&lt;b&gt;React Components&lt;/b&gt;&lt;br&gt;&lt;/div&gt;" style="html=1;align=center;verticalAlign=middle;dashed=0;whiteSpace=wrap;" vertex="1" parent="sMpZfSwaJNz6gbqCKryr-90">
          <mxGeometry width="165" height="50" as="geometry" />
        </mxCell>
        <mxCell id="sMpZfSwaJNz6gbqCKryr-92" value="" style="shape=note;whiteSpace=wrap;html=1;backgroundOutline=1;darkOpacity=0.05;size=6;" vertex="1" parent="sMpZfSwaJNz6gbqCKryr-90">
          <mxGeometry x="140" y="5" width="20" height="20" as="geometry" />
        </mxCell>
        <mxCell id="sMpZfSwaJNz6gbqCKryr-119" style="rounded=0;orthogonalLoop=1;jettySize=auto;html=1;entryX=0;entryY=0.5;entryDx=0;entryDy=0;dashed=1;" edge="1" parent="1" source="sMpZfSwaJNz6gbqCKryr-94" target="sMpZfSwaJNz6gbqCKryr-108">
          <mxGeometry relative="1" as="geometry" />
        </mxCell>
        <mxCell id="sMpZfSwaJNz6gbqCKryr-94" value="&amp;lt;&amp;lt;artifact&amp;gt;&amp;gt;&lt;br&gt;&lt;div&gt;&lt;b&gt;API Calls to backend&lt;/b&gt;&lt;br&gt;&lt;/div&gt;" style="html=1;align=center;verticalAlign=middle;dashed=0;whiteSpace=wrap;" vertex="1" parent="1">
          <mxGeometry x="180" y="575" width="165" height="50" as="geometry" />
        </mxCell>
        <mxCell id="sMpZfSwaJNz6gbqCKryr-95" value="" style="shape=note;whiteSpace=wrap;html=1;backgroundOutline=1;darkOpacity=0.05;size=6;" vertex="1" parent="1">
          <mxGeometry x="320" y="580" width="20" height="20" as="geometry" />
        </mxCell>
        <mxCell id="sMpZfSwaJNz6gbqCKryr-97" value="" style="group" vertex="1" connectable="0" parent="1">
          <mxGeometry x="172.5" y="820" width="165" height="50" as="geometry" />
        </mxCell>
        <mxCell id="sMpZfSwaJNz6gbqCKryr-98" value="&amp;lt;&amp;lt;artifact&amp;gt;&amp;gt;&lt;br&gt;&lt;div&gt;&lt;b&gt;React Components&lt;/b&gt;&lt;br&gt;&lt;/div&gt;" style="html=1;align=center;verticalAlign=middle;dashed=0;whiteSpace=wrap;" vertex="1" parent="sMpZfSwaJNz6gbqCKryr-97">
          <mxGeometry width="165" height="50" as="geometry" />
        </mxCell>
        <mxCell id="sMpZfSwaJNz6gbqCKryr-99" value="" style="shape=note;whiteSpace=wrap;html=1;backgroundOutline=1;darkOpacity=0.05;size=6;" vertex="1" parent="sMpZfSwaJNz6gbqCKryr-97">
          <mxGeometry x="140" y="5" width="20" height="20" as="geometry" />
        </mxCell>
        <mxCell id="sMpZfSwaJNz6gbqCKryr-161" style="rounded=0;orthogonalLoop=1;jettySize=auto;html=1;dashed=1;exitX=0;exitY=0.5;exitDx=0;exitDy=0;" edge="1" parent="1" source="sMpZfSwaJNz6gbqCKryr-157" target="sMpZfSwaJNz6gbqCKryr-101">
          <mxGeometry relative="1" as="geometry" />
        </mxCell>
        <mxCell id="sMpZfSwaJNz6gbqCKryr-101" value="&amp;lt;&amp;lt;artifact&amp;gt;&amp;gt;&lt;br&gt;&lt;div&gt;&lt;b&gt;API Calls to backend&lt;/b&gt;&lt;br&gt;&lt;/div&gt;" style="html=1;align=center;verticalAlign=middle;dashed=0;whiteSpace=wrap;" vertex="1" parent="1">
          <mxGeometry x="172.5" y="920" width="165" height="50" as="geometry" />
        </mxCell>
        <mxCell id="sMpZfSwaJNz6gbqCKryr-102" value="" style="shape=note;whiteSpace=wrap;html=1;backgroundOutline=1;darkOpacity=0.05;size=6;" vertex="1" parent="1">
          <mxGeometry x="312.5" y="925" width="20" height="20" as="geometry" />
        </mxCell>
        <mxCell id="sMpZfSwaJNz6gbqCKryr-120" style="rounded=0;orthogonalLoop=1;jettySize=auto;html=1;exitX=1;exitY=0.5;exitDx=0;exitDy=0;entryX=0.25;entryY=0;entryDx=0;entryDy=0;dashed=1;" edge="1" parent="1" source="sMpZfSwaJNz6gbqCKryr-77" target="sMpZfSwaJNz6gbqCKryr-108">
          <mxGeometry relative="1" as="geometry" />
        </mxCell>
        <mxCell id="sMpZfSwaJNz6gbqCKryr-121" style="rounded=0;orthogonalLoop=1;jettySize=auto;html=1;entryX=0.25;entryY=1;entryDx=0;entryDy=0;dashed=1;exitX=1;exitY=0.5;exitDx=0;exitDy=0;" edge="1" parent="1" source="sMpZfSwaJNz6gbqCKryr-101" target="sMpZfSwaJNz6gbqCKryr-108">
          <mxGeometry relative="1" as="geometry">
            <mxPoint x="350" y="595" as="sourcePoint" />
            <mxPoint x="725" y="550" as="targetPoint" />
          </mxGeometry>
        </mxCell>
        <mxCell id="sMpZfSwaJNz6gbqCKryr-139" value="" style="group" vertex="1" connectable="0" parent="1">
          <mxGeometry x="620" y="345" width="165" height="50" as="geometry" />
        </mxCell>
        <mxCell id="sMpZfSwaJNz6gbqCKryr-140" value="&amp;lt;&amp;lt;artifact&amp;gt;&amp;gt;&lt;br&gt;&lt;div&gt;&lt;b&gt;Main Process&lt;/b&gt;&lt;br&gt;&lt;/div&gt;" style="html=1;align=center;verticalAlign=middle;dashed=0;whiteSpace=wrap;" vertex="1" parent="sMpZfSwaJNz6gbqCKryr-139">
          <mxGeometry width="165" height="50" as="geometry" />
        </mxCell>
        <mxCell id="sMpZfSwaJNz6gbqCKryr-141" value="" style="shape=note;whiteSpace=wrap;html=1;backgroundOutline=1;darkOpacity=0.05;size=6;" vertex="1" parent="sMpZfSwaJNz6gbqCKryr-139">
          <mxGeometry x="140" y="5" width="20" height="20" as="geometry" />
        </mxCell>
        <mxCell id="sMpZfSwaJNz6gbqCKryr-143" value="&amp;lt;&amp;lt;artifact&amp;gt;&amp;gt;&lt;br&gt;&lt;div&gt;&lt;b&gt;SQL Queries&lt;/b&gt;&lt;br&gt;&lt;/div&gt;" style="html=1;align=center;verticalAlign=middle;dashed=0;whiteSpace=wrap;" vertex="1" parent="1">
          <mxGeometry x="1190" y="410" width="165" height="45" as="geometry" />
        </mxCell>
        <mxCell id="sMpZfSwaJNz6gbqCKryr-144" value="" style="shape=note;whiteSpace=wrap;html=1;backgroundOutline=1;darkOpacity=0.05;size=6;" vertex="1" parent="1">
          <mxGeometry x="1330" y="415" width="20" height="20" as="geometry" />
        </mxCell>
        <mxCell id="sMpZfSwaJNz6gbqCKryr-151" style="edgeStyle=orthogonalEdgeStyle;rounded=0;orthogonalLoop=1;jettySize=auto;html=1;exitX=1;exitY=0.5;exitDx=0;exitDy=0;entryX=0.75;entryY=0;entryDx=0;entryDy=0;dashed=1;" edge="1" parent="1" source="sMpZfSwaJNz6gbqCKryr-143" target="sMpZfSwaJNz6gbqCKryr-145">
          <mxGeometry relative="1" as="geometry" />
        </mxCell>
        <mxCell id="sMpZfSwaJNz6gbqCKryr-145" value="&amp;lt;&amp;lt;artifact&amp;gt;&amp;gt;&lt;br&gt;&lt;div&gt;&lt;b&gt;Historic_Data&lt;/b&gt;&lt;br&gt;&lt;/div&gt;" style="html=1;align=center;verticalAlign=middle;dashed=0;whiteSpace=wrap;" vertex="1" parent="1">
          <mxGeometry x="1275" y="475" width="165" height="50" as="geometry" />
        </mxCell>
        <mxCell id="sMpZfSwaJNz6gbqCKryr-146" value="" style="shape=note;whiteSpace=wrap;html=1;backgroundOutline=1;darkOpacity=0.05;size=6;" vertex="1" parent="1">
          <mxGeometry x="1415" y="485" width="20" height="20" as="geometry" />
        </mxCell>
        <mxCell id="sMpZfSwaJNz6gbqCKryr-150" style="rounded=0;orthogonalLoop=1;jettySize=auto;html=1;exitX=0.25;exitY=1;exitDx=0;exitDy=0;entryX=0.25;entryY=0;entryDx=0;entryDy=0;dashed=1;" edge="1" parent="1" source="sMpZfSwaJNz6gbqCKryr-143" target="sMpZfSwaJNz6gbqCKryr-147">
          <mxGeometry relative="1" as="geometry" />
        </mxCell>
        <mxCell id="sMpZfSwaJNz6gbqCKryr-147" value="&amp;lt;&amp;lt;artifact&amp;gt;&amp;gt;&lt;br&gt;&lt;div&gt;&lt;b&gt;Tables&lt;/b&gt;&lt;br&gt;&lt;/div&gt;" style="html=1;align=center;verticalAlign=middle;dashed=0;whiteSpace=wrap;" vertex="1" parent="1">
          <mxGeometry x="1190" y="550" width="165" height="50" as="geometry" />
        </mxCell>
        <mxCell id="sMpZfSwaJNz6gbqCKryr-148" value="" style="shape=note;whiteSpace=wrap;html=1;backgroundOutline=1;darkOpacity=0.05;size=6;" vertex="1" parent="1">
          <mxGeometry x="1330" y="555" width="20" height="20" as="geometry" />
        </mxCell>
        <mxCell id="sMpZfSwaJNz6gbqCKryr-152" value="&amp;lt;&amp;lt;artifact&amp;gt;&amp;gt;&lt;br&gt;&lt;div&gt;&lt;b&gt;Model&lt;/b&gt;&lt;br&gt;&lt;/div&gt;" style="html=1;align=center;verticalAlign=middle;dashed=0;whiteSpace=wrap;" vertex="1" parent="1">
          <mxGeometry x="815" y="785" width="155" height="50" as="geometry" />
        </mxCell>
        <mxCell id="sMpZfSwaJNz6gbqCKryr-153" value="" style="shape=note;whiteSpace=wrap;html=1;backgroundOutline=1;darkOpacity=0.05;size=6;" vertex="1" parent="1">
          <mxGeometry x="945" y="790" width="20" height="20" as="geometry" />
        </mxCell>
        <mxCell id="sMpZfSwaJNz6gbqCKryr-162" style="edgeStyle=orthogonalEdgeStyle;rounded=0;orthogonalLoop=1;jettySize=auto;html=1;dashed=1;exitX=1;exitY=0.5;exitDx=0;exitDy=0;" edge="1" parent="1" source="sMpZfSwaJNz6gbqCKryr-152" target="sMpZfSwaJNz6gbqCKryr-154">
          <mxGeometry relative="1" as="geometry" />
        </mxCell>
        <mxCell id="sMpZfSwaJNz6gbqCKryr-163" style="rounded=0;orthogonalLoop=1;jettySize=auto;html=1;exitX=1;exitY=0.5;exitDx=0;exitDy=0;entryX=0.75;entryY=1;entryDx=0;entryDy=0;dashed=1;" edge="1" parent="1" source="sMpZfSwaJNz6gbqCKryr-154" target="sMpZfSwaJNz6gbqCKryr-145">
          <mxGeometry relative="1" as="geometry">
            <Array as="points">
              <mxPoint x="1399" y="880" />
            </Array>
          </mxGeometry>
        </mxCell>
        <mxCell id="sMpZfSwaJNz6gbqCKryr-154" value="&amp;lt;&amp;lt;artifact&amp;gt;&amp;gt;&lt;br&gt;&lt;div&gt;&lt;b&gt;Data PreProcessing&lt;/b&gt;&lt;br&gt;&lt;/div&gt;" style="html=1;align=center;verticalAlign=middle;dashed=0;whiteSpace=wrap;" vertex="1" parent="1">
          <mxGeometry x="915" y="855" width="155" height="50" as="geometry" />
        </mxCell>
        <mxCell id="sMpZfSwaJNz6gbqCKryr-155" value="" style="shape=note;whiteSpace=wrap;html=1;backgroundOutline=1;darkOpacity=0.05;size=6;" vertex="1" parent="1">
          <mxGeometry x="1045" y="860" width="20" height="20" as="geometry" />
        </mxCell>
        <mxCell id="sMpZfSwaJNz6gbqCKryr-160" style="edgeStyle=orthogonalEdgeStyle;rounded=0;orthogonalLoop=1;jettySize=auto;html=1;exitX=0.25;exitY=0;exitDx=0;exitDy=0;entryX=0.25;entryY=1;entryDx=0;entryDy=0;dashed=1;" edge="1" parent="1" source="sMpZfSwaJNz6gbqCKryr-157" target="sMpZfSwaJNz6gbqCKryr-152">
          <mxGeometry relative="1" as="geometry" />
        </mxCell>
        <mxCell id="sMpZfSwaJNz6gbqCKryr-157" value="&amp;lt;&amp;lt;artifact&amp;gt;&amp;gt;&lt;br&gt;&lt;div&gt;&lt;b&gt;Report Generations&lt;/b&gt;&lt;br&gt;&lt;/div&gt;" style="html=1;align=center;verticalAlign=middle;dashed=0;whiteSpace=wrap;" vertex="1" parent="1">
          <mxGeometry x="815" y="920" width="155" height="50" as="geometry" />
        </mxCell>
        <mxCell id="sMpZfSwaJNz6gbqCKryr-158" value="" style="shape=note;whiteSpace=wrap;html=1;backgroundOutline=1;darkOpacity=0.05;size=6;" vertex="1" parent="1">
          <mxGeometry x="945" y="925" width="20" height="20" as="geometry" />
        </mxCell>
        <mxCell id="sMpZfSwaJNz6gbqCKryr-164" style="rounded=0;orthogonalLoop=1;jettySize=auto;html=1;exitX=1;exitY=0.5;exitDx=0;exitDy=0;entryX=0;entryY=0.5;entryDx=0;entryDy=0;dashed=1;" edge="1" parent="1" source="sMpZfSwaJNz6gbqCKryr-140" target="sMpZfSwaJNz6gbqCKryr-143">
          <mxGeometry relative="1" as="geometry" />
        </mxCell>
        <mxCell id="sMpZfSwaJNz6gbqCKryr-96" style="edgeStyle=orthogonalEdgeStyle;rounded=0;orthogonalLoop=1;jettySize=auto;html=1;dashed=1;exitX=0.5;exitY=1;exitDx=0;exitDy=0;" edge="1" parent="1" source="sMpZfSwaJNz6gbqCKryr-91" target="sMpZfSwaJNz6gbqCKryr-94">
          <mxGeometry relative="1" as="geometry" />
        </mxCell>
        <mxCell id="sMpZfSwaJNz6gbqCKryr-100" style="edgeStyle=orthogonalEdgeStyle;rounded=0;orthogonalLoop=1;jettySize=auto;html=1;dashed=1;exitX=0.5;exitY=1;exitDx=0;exitDy=0;" edge="1" parent="1" source="sMpZfSwaJNz6gbqCKryr-98" target="sMpZfSwaJNz6gbqCKryr-101">
          <mxGeometry relative="1" as="geometry" />
        </mxCell>
      </root>
    </mxGraphModel>
  </diagram>
</mxfile>
